<svg width="25" height="25" viewBox="0 0 25 25" fill="none" xmlns="http://www.w3.org/2000/svg">
<path d="M20.95 21.293C18.8667 21.293 16.8083 20.839 14.775 19.931C12.7417 19.023 10.8917 17.7353 9.225 16.068C7.55833 14.4006 6.271 12.5506 5.363 10.518C4.455 8.4853 4.00067 6.42697 4 4.34297C4 4.04297 4.1 3.79297 4.3 3.59297C4.5 3.39297 4.75 3.29297 5.05 3.29297H9.1C9.33333 3.29297 9.54167 3.3723 9.725 3.53097C9.90833 3.68964 10.0167 3.87697 10.05 4.09297L10.7 7.59297C10.7333 7.85964 10.725 8.08464 10.675 8.26797C10.625 8.4513 10.5333 8.60964 10.4 8.74297L7.975 11.193C8.30833 11.8096 8.704 12.4053 9.162 12.98C9.62 13.5546 10.1243 14.109 10.675 14.643C11.1917 15.1596 11.7333 15.639 12.3 16.081C12.8667 16.523 13.4667 16.927 14.1 17.293L16.45 14.943C16.6 14.793 16.796 14.6806 17.038 14.606C17.28 14.5313 17.5173 14.5103 17.75 14.543L21.2 15.243C21.4333 15.3096 21.625 15.4306 21.775 15.606C21.925 15.7813 22 15.977 22 16.193V20.243C22 20.543 21.9 20.793 21.7 20.993C21.5 21.193 21.25 21.293 20.95 21.293Z" fill="#CFB369"/>
</svg>
